<svg width="132" height="41" viewBox="0 0 132 41" fill="none" xmlns="http://www.w3.org/2000/svg">
<g filter="url(#filter0_d)">
<path d="M16.1738 0.405273C18.1074 0.405273 19.8555 0.717773 21.418 1.34277C22.9902 1.95801 24.333 2.81738 25.4463 3.9209C26.5596 5.02441 27.4189 6.33789 28.0244 7.86133C28.6299 9.38477 28.9326 11.0498 28.9326 12.8564C28.9326 14.0186 28.8203 15.1416 28.5957 16.2256C28.3711 17.3096 28.0488 18.3301 27.6289 19.2871C27.209 20.2441 26.6914 21.1182 26.0762 21.9092C25.4707 22.7002 24.7822 23.3838 24.0107 23.96C23.249 24.5264 22.4092 24.9658 21.4912 25.2783C20.583 25.5908 19.6113 25.7471 18.5762 25.7471C17.5215 25.7471 16.457 25.6494 15.3828 25.4541C14.3086 25.2588 13.2441 25.0488 12.1895 24.8242C11.8281 25.0293 11.457 25.2051 11.0762 25.3516C10.6953 25.5078 10.3145 25.6348 9.93359 25.7324C9.55273 25.8398 9.17676 25.918 8.80566 25.9668C8.44434 26.0254 8.10254 26.0547 7.78027 26.0547C6.80371 26.0547 6.06152 25.9424 5.55371 25.7178C5.03613 25.4932 4.77734 25.1562 4.77734 24.707C4.77734 24.4434 4.85059 24.209 4.99707 24.0039C5.13379 23.7988 5.36816 23.6279 5.7002 23.4912C6.03223 23.3447 6.4668 23.2373 7.00391 23.1689C7.53125 23.0908 8.19043 23.0518 8.98145 23.0518C9.59668 23.0518 10.2021 23.0859 10.7979 23.1543C11.3936 23.2129 11.9844 23.2861 12.5703 23.374L12.9658 22.9639C13.1709 22.7197 13.3271 22.4121 13.4346 22.041C13.542 21.6602 13.6201 21.1719 13.6689 20.5762C13.7178 19.9805 13.7471 19.2529 13.7568 18.3936C13.7666 17.5244 13.7715 16.4746 13.7715 15.2441C13.7715 14.0527 13.7764 13.0371 13.7861 12.1973C13.8057 11.3477 13.8447 10.6201 13.9033 10.0146C13.9619 9.40918 14.0498 8.89648 14.167 8.47656C14.2842 8.04688 14.4404 7.65625 14.6357 7.30469C14.8408 6.94336 15.0947 6.5918 15.3975 6.25C15.7002 5.89844 16.0615 5.49805 16.4814 5.04883L17.2285 5.70801C17.0137 5.91309 16.8428 6.16699 16.7158 6.46973C16.5986 6.7627 16.5107 7.11426 16.4521 7.52441C16.3936 7.9248 16.3545 8.38379 16.335 8.90137C16.3252 9.40918 16.3203 9.98535 16.3203 10.6299V18.877C16.3203 19.5117 16.252 20.0684 16.1152 20.5469C15.9785 21.0156 15.793 21.4355 15.5586 21.8066C15.334 22.1777 15.0752 22.5098 14.7822 22.8027C14.4893 23.0957 14.1865 23.3691 13.874 23.623C14.4502 23.7402 15.0117 23.8574 15.5586 23.9746C16.1055 24.0918 16.6328 24.1992 17.1406 24.2969C17.6582 24.3945 18.1514 24.4775 18.6201 24.5459C19.0986 24.6045 19.5527 24.6338 19.9824 24.6338C20.7832 24.6338 21.4961 24.458 22.1211 24.1064C22.7461 23.7549 23.2881 23.2764 23.7471 22.6709C24.2061 22.0557 24.5918 21.3379 24.9043 20.5176C25.2266 19.6875 25.4854 18.7988 25.6807 17.8516C25.876 16.9043 26.0127 15.9131 26.0908 14.8779C26.1787 13.8428 26.2227 12.8174 26.2227 11.8018C26.2227 10.1904 26.0176 8.74512 25.6074 7.46582C25.1973 6.18652 24.5869 5.10254 23.7764 4.21387C22.9756 3.31543 21.9746 2.63184 20.7734 2.16309C19.582 1.68457 18.2002 1.44531 16.6279 1.44531C15.4951 1.44531 14.5088 1.53809 13.6689 1.72363C12.8291 1.89941 12.1064 2.13867 11.501 2.44141C10.9053 2.73438 10.417 3.07129 10.0361 3.45215C9.65527 3.83301 9.35254 4.22852 9.12793 4.63867C8.91309 5.03906 8.76172 5.43945 8.67383 5.83984C8.5957 6.24023 8.55664 6.60645 8.55664 6.93848C8.55664 7.3291 8.58594 7.71484 8.64453 8.0957C8.71289 8.4668 8.83984 8.79883 9.02539 9.0918C9.2207 9.38477 9.49414 9.61914 9.8457 9.79492C10.1973 9.9707 10.666 10.0586 11.252 10.0586C11.4473 10.0586 11.6084 10.0488 11.7354 10.0293C11.8623 10 11.9697 9.96582 12.0576 9.92676C12.1553 9.8877 12.2383 9.84375 12.3066 9.79492L12.4824 10.6592C12.3359 10.7666 12.0869 10.8594 11.7354 10.9375C11.3936 11.0156 11.0225 11.0547 10.6221 11.0547C10.0361 11.0547 9.48926 10.9521 8.98145 10.7471C8.4834 10.542 8.04883 10.2637 7.67773 9.91211C7.30664 9.55078 7.01855 9.13574 6.81348 8.66699C6.59863 8.19824 6.49121 7.7002 6.49121 7.17285C6.49121 6.26465 6.73047 5.40527 7.20898 4.59473C7.6875 3.77441 8.35645 3.05664 9.21582 2.44141C10.0752 1.81641 11.0957 1.32324 12.2773 0.961914C13.4688 0.59082 14.7676 0.405273 16.1738 0.405273ZM7.17969 24.1064C7.02344 24.1064 6.85742 24.1113 6.68164 24.1211C6.50586 24.1309 6.34473 24.1553 6.19824 24.1943C6.04199 24.2334 5.91504 24.292 5.81738 24.3701C5.71973 24.4482 5.6709 24.5605 5.6709 24.707C5.6709 24.9023 5.83203 25.0488 6.1543 25.1465C6.47656 25.2441 7.01855 25.293 7.78027 25.293C8.36621 25.293 8.92285 25.2295 9.4502 25.1025C9.9873 24.9756 10.4902 24.79 10.959 24.5459C10.3145 24.4287 9.6748 24.3262 9.04004 24.2383C8.40527 24.1504 7.78516 24.1064 7.17969 24.1064ZM36.7695 21.8213C36.7207 21.8994 36.6475 22.0361 36.5498 22.2314C36.4619 22.417 36.3447 22.627 36.1982 22.8613C36.0615 23.0957 35.8955 23.3398 35.7002 23.5938C35.5146 23.8477 35.2998 24.0771 35.0557 24.2822C34.8115 24.4873 34.5381 24.6582 34.2354 24.7949C33.9424 24.9316 33.6152 25 33.2539 25C32.9707 25 32.6777 24.9414 32.375 24.8242C32.0723 24.707 31.7891 24.4922 31.5254 24.1797C31.2715 23.8672 31.0615 23.4424 30.8955 22.9053C30.7295 22.3584 30.6465 21.6553 30.6465 20.7959C30.6465 19.9756 30.6758 19.1553 30.7344 18.335C30.793 17.5049 30.8613 16.748 30.9395 16.0645C31.0273 15.3809 31.1104 14.8096 31.1885 14.3506C31.2666 13.8916 31.3252 13.6133 31.3643 13.5156C31.4033 13.4277 31.4814 13.3496 31.5986 13.2812C31.7158 13.2129 31.8477 13.1592 31.9941 13.1201C32.1504 13.0811 32.3066 13.0518 32.4629 13.0322C32.6289 13.0127 32.7705 13.0029 32.8877 13.0029C33.0439 13.0029 33.166 13.042 33.2539 13.1201C33.3516 13.1982 33.4004 13.3301 33.4004 13.5156C33.4004 13.6035 33.3809 13.7793 33.3418 14.043C33.3125 14.2969 33.2734 14.6094 33.2246 14.9805C33.1758 15.3516 33.1221 15.7617 33.0635 16.2109C33.0146 16.6602 32.9658 17.1191 32.917 17.5879C32.8682 18.0469 32.8242 18.5059 32.7852 18.9648C32.7559 19.4141 32.7412 19.8242 32.7412 20.1953C32.7412 21.2598 32.8535 22.0508 33.0781 22.5684C33.3125 23.0859 33.6934 23.3447 34.2207 23.3447C34.6699 23.3447 35.124 23.0176 35.583 22.3633C36.0518 21.709 36.457 20.7568 36.7988 19.5068C36.8477 18.9795 36.8916 18.418 36.9307 17.8223C36.9795 17.2168 37.0234 16.6455 37.0625 16.1084C37.1016 15.5615 37.1357 15.0732 37.165 14.6436C37.2041 14.2139 37.2383 13.9062 37.2676 13.7207C37.2969 13.584 37.375 13.4717 37.502 13.3838C37.6289 13.2861 37.7705 13.2129 37.9268 13.1641C38.0928 13.1055 38.249 13.0664 38.3955 13.0469C38.5518 13.0176 38.6689 13.0029 38.7471 13.0029C38.9131 13.0029 39.0254 13.042 39.084 13.1201C39.1523 13.1885 39.1865 13.3008 39.1865 13.457C39.1865 13.5938 39.1719 13.8574 39.1426 14.248C39.123 14.6289 39.0938 15.0781 39.0547 15.5957C39.0254 16.1035 38.9912 16.6504 38.9521 17.2363C38.9131 17.8223 38.874 18.3887 38.835 18.9355C38.8057 19.4727 38.7764 19.9609 38.7471 20.4004C38.7275 20.8398 38.7178 21.1719 38.7178 21.3965C38.7178 22.0605 38.752 22.583 38.8203 22.9639C38.8984 23.3447 39.0645 23.5352 39.3184 23.5352C39.5039 23.5352 39.7041 23.418 39.9189 23.1836C40.1436 22.9395 40.3828 22.6025 40.6367 22.1729C40.9004 21.7432 41.1836 21.2354 41.4863 20.6494C41.7891 20.0537 42.1162 19.4043 42.4678 18.7012L42.6143 18.3936L43.2148 18.8477L43.0684 19.1553C42.5996 20.083 42.1846 20.9131 41.8232 21.6455C41.4717 22.3682 41.1348 22.9785 40.8125 23.4766C40.4902 23.9746 40.1631 24.3555 39.8311 24.6191C39.499 24.873 39.1279 25 38.7178 25C38.3369 25 38.0195 24.9268 37.7656 24.7803C37.5215 24.6338 37.3262 24.4238 37.1797 24.1504C37.0332 23.877 36.9258 23.5449 36.8574 23.1543C36.7988 22.7637 36.7695 22.3193 36.7695 21.8213ZM47.4043 14.043C47.1211 14.043 46.8477 14.1455 46.584 14.3506C46.3301 14.5459 46.0859 14.8193 45.8516 15.1709C45.6172 15.5127 45.3877 15.918 45.1631 16.3867C44.9482 16.8457 44.7334 17.3389 44.5186 17.8662V18.042C44.4893 18.9014 44.46 19.8145 44.4307 20.7812C44.4111 21.748 44.4014 22.8027 44.4014 23.9453C44.4014 24.1406 44.333 24.3066 44.1963 24.4434C44.0693 24.5703 43.918 24.6777 43.7422 24.7656C43.5664 24.8438 43.3857 24.9023 43.2002 24.9414C43.0146 24.9805 42.8633 25 42.7461 25C42.5996 25 42.4629 24.9561 42.3359 24.8682C42.209 24.7803 42.1455 24.585 42.1455 24.2822C42.1455 24.1357 42.1602 23.9551 42.1895 23.7402C42.2188 23.5156 42.2578 23.2764 42.3066 23.0225C42.3457 22.7686 42.3945 22.5098 42.4531 22.2461C42.502 21.9727 42.5508 21.7188 42.5996 21.4844C42.5996 20.6543 42.5996 19.9072 42.5996 19.2432C42.5898 18.5791 42.585 17.9883 42.585 17.4707C42.585 16.9531 42.585 16.499 42.585 16.1084C42.5752 15.7178 42.5703 15.3809 42.5703 15.0977C42.5703 14.6289 42.5801 14.2871 42.5996 14.0723C42.6094 13.8477 42.6289 13.6914 42.6582 13.6035C42.707 13.4668 42.7949 13.3594 42.9219 13.2812C43.0586 13.2031 43.2002 13.1445 43.3467 13.1055C43.4932 13.0566 43.6396 13.0273 43.7861 13.0176C43.9326 13.0078 44.0449 13.0029 44.123 13.0029C44.3086 13.0029 44.4307 13.0566 44.4893 13.1641C44.5479 13.2715 44.5771 13.4375 44.5771 13.6621C44.5771 14.1699 44.5771 14.6289 44.5771 15.0391C44.5771 15.4492 44.5674 15.8594 44.5479 16.2695C44.7334 15.8301 44.9482 15.415 45.1924 15.0244C45.4463 14.624 45.7246 14.2773 46.0273 13.9844C46.3301 13.6816 46.6475 13.4424 46.9795 13.2666C47.3213 13.0908 47.6729 13.0029 48.0342 13.0029C48.4736 13.0029 48.835 13.0957 49.1182 13.2812C49.4111 13.457 49.6406 13.7061 49.8066 14.0283C49.9824 14.3506 50.1094 14.7314 50.1875 15.1709C50.2754 15.6006 50.334 16.0693 50.3633 16.5771C50.6367 16.0791 50.9297 15.6152 51.2422 15.1855C51.5645 14.7461 51.9014 14.3652 52.2529 14.043C52.6143 13.7207 52.9902 13.4668 53.3809 13.2812C53.7812 13.0957 54.1963 13.0029 54.626 13.0029C55.3682 13.0029 55.9102 13.2373 56.252 13.7061C56.5938 14.165 56.7646 14.79 56.7646 15.5811C56.7646 16.0791 56.7256 16.6357 56.6475 17.251C56.5693 17.8662 56.4863 18.4912 56.3984 19.126C56.3105 19.751 56.2275 20.3662 56.1494 20.9717C56.0713 21.5771 56.0322 22.1289 56.0322 22.627C56.0322 23.2324 56.1836 23.5352 56.4863 23.5352C56.6426 23.5352 56.8135 23.4424 56.999 23.2568C57.1846 23.0615 57.3945 22.7686 57.6289 22.3779C57.873 21.9775 58.1514 21.4746 58.4639 20.8691C58.7861 20.2637 59.1572 19.541 59.5771 18.7012L59.7236 18.3936L60.3242 18.8477L60.1777 19.1553C59.6016 20.3076 59.1084 21.2598 58.6982 22.0117C58.2979 22.7637 57.9365 23.3643 57.6143 23.8135C57.292 24.2529 56.9844 24.5605 56.6914 24.7363C56.4082 24.9121 56.0908 25 55.7393 25C55.5342 25 55.334 24.9707 55.1387 24.9121C54.9434 24.8535 54.7725 24.751 54.626 24.6045C54.4795 24.458 54.3623 24.2627 54.2744 24.0186C54.1865 23.7646 54.1426 23.4424 54.1426 23.0518C54.1426 22.4658 54.1816 21.8066 54.2598 21.0742C54.3379 20.3418 54.4258 19.6094 54.5234 18.877C54.6211 18.1445 54.709 17.4561 54.7871 16.8115C54.8652 16.1572 54.9043 15.625 54.9043 15.2148C54.9043 14.8535 54.8262 14.5654 54.6699 14.3506C54.5137 14.126 54.2793 14.0137 53.9668 14.0137C53.6543 14.0137 53.3271 14.1357 52.9854 14.3799C52.6533 14.624 52.3262 14.9414 52.0039 15.332C51.6914 15.7129 51.3936 16.1426 51.1104 16.6211C50.8369 17.0996 50.5977 17.5732 50.3926 18.042C50.3926 19.0674 50.3828 19.9658 50.3633 20.7373C50.3438 21.499 50.3145 22.1436 50.2754 22.6709C50.2461 23.1982 50.2021 23.6182 50.1436 23.9307C50.085 24.2334 50.0215 24.4385 49.9531 24.5459C49.9043 24.6143 49.8213 24.6777 49.7041 24.7363C49.5869 24.7949 49.4551 24.8438 49.3086 24.8828C49.1719 24.9219 49.0352 24.9512 48.8984 24.9707C48.7715 24.9902 48.6738 25 48.6055 25C48.4492 25 48.3125 24.9561 48.1953 24.8682C48.0879 24.7705 48.0342 24.585 48.0342 24.3115C48.0342 24.1846 48.0439 24.0137 48.0635 23.7988C48.0928 23.584 48.127 23.3447 48.166 23.0811C48.2051 22.8174 48.249 22.5342 48.2979 22.2314C48.3467 21.9287 48.3955 21.6211 48.4443 21.3086C48.4541 21.0156 48.4639 20.6885 48.4736 20.3271C48.4834 19.9658 48.4932 19.6094 48.5029 19.2578C48.5127 18.8965 48.5176 18.5547 48.5176 18.2324C48.5273 17.9004 48.5322 17.6172 48.5322 17.3828C48.5322 16.8848 48.5176 16.4307 48.4883 16.0205C48.459 15.6104 48.4004 15.2588 48.3125 14.9658C48.2344 14.6729 48.1221 14.4482 47.9756 14.292C47.8291 14.126 47.6387 14.043 47.4043 14.043ZM61.6572 17.207C61.667 18.3301 61.7402 19.3311 61.877 20.21C62.0137 21.0791 62.2041 21.8164 62.4482 22.4219C62.6924 23.0176 62.9902 23.4717 63.3418 23.7842C63.6934 24.0967 64.0938 24.2529 64.543 24.2529C65.1582 24.2529 65.666 24.0088 66.0664 23.5205C66.4766 23.0225 66.7793 22.3438 66.9746 21.4844C66.4668 21.377 65.9834 21.1768 65.5244 20.8838C65.0654 20.5908 64.6602 20.2295 64.3086 19.7998C63.957 19.3604 63.6738 18.8574 63.459 18.291C63.2539 17.7246 63.1514 17.1094 63.1514 16.4453C63.1514 15.8984 63.2197 15.4199 63.3564 15.0098C63.5029 14.5898 63.6934 14.2432 63.9277 13.9697C64.1621 13.6865 64.4307 13.4766 64.7334 13.3398C65.0459 13.1934 65.373 13.1201 65.7148 13.1201C66.1152 13.1201 66.5254 13.2373 66.9453 13.4717C67.3652 13.6963 67.7461 14.0381 68.0879 14.4971C68.4297 14.9463 68.708 15.5127 68.9229 16.1963C69.1377 16.8799 69.2451 17.6758 69.2451 18.584C69.2451 18.9258 69.2256 19.2627 69.1865 19.5947C69.1475 19.9268 69.0889 20.249 69.0107 20.5615C69.4795 20.4248 69.9043 20.2051 70.2852 19.9023C70.6758 19.5996 70.998 19.1992 71.252 18.7012L71.4131 18.3936L72.0137 18.8477L71.8525 19.1553C71.5205 19.8193 71.0762 20.3516 70.5195 20.752C69.9727 21.1426 69.377 21.3965 68.7324 21.5137C68.5566 22.0117 68.3271 22.4756 68.0439 22.9053C67.7705 23.3252 67.4531 23.6914 67.0918 24.0039C66.7402 24.3164 66.3398 24.5605 65.8906 24.7363C65.4512 24.9121 64.9727 25 64.4551 25C63.7227 25 63.0488 24.8438 62.4336 24.5312C61.8281 24.2188 61.3008 23.7109 60.8516 23.0078C60.4121 22.3047 60.0654 21.3818 59.8115 20.2393C59.5674 19.0869 59.4453 17.6758 59.4453 16.0059C59.4453 13.6816 59.5527 11.7041 59.7676 10.0732C59.9824 8.43262 60.2656 7.09961 60.6172 6.07422C60.9688 5.03906 61.374 4.28711 61.833 3.81836C62.292 3.33984 62.7656 3.10059 63.2539 3.10059C63.5566 3.10059 63.8057 3.22266 64.001 3.4668C64.1963 3.70117 64.2939 4.13086 64.2939 4.75586C64.2939 5.24414 64.2549 5.80078 64.1768 6.42578C64.0986 7.05078 63.9961 7.71973 63.8691 8.43262C63.7422 9.14551 63.5908 9.8877 63.415 10.6592C63.2393 11.4209 63.0537 12.1826 62.8584 12.9443C62.6631 13.6963 62.4629 14.4385 62.2578 15.1709C62.0527 15.8936 61.8525 16.5723 61.6572 17.207ZM64.1182 16.3281C64.1182 16.9043 64.1963 17.4365 64.3525 17.9248C64.5186 18.4033 64.7383 18.8281 65.0117 19.1992C65.2852 19.5605 65.6025 19.8633 65.9639 20.1074C66.3252 20.3516 66.7109 20.5225 67.1211 20.6201C67.1699 20.3467 67.1992 20.0635 67.209 19.7705C67.2285 19.4678 67.2383 19.1602 67.2383 18.8477C67.2383 18.1543 67.1846 17.5293 67.0771 16.9727C66.9697 16.4062 66.8281 15.9277 66.6523 15.5371C66.4766 15.1367 66.2715 14.8291 66.0371 14.6143C65.8027 14.3994 65.5635 14.292 65.3193 14.292C64.9873 14.292 64.7041 14.4727 64.4697 14.834C64.2354 15.1855 64.1182 15.6836 64.1182 16.3281ZM63.3418 5.10742C63.3418 4.90234 63.3174 4.74121 63.2686 4.62402C63.2197 4.50684 63.1416 4.44824 63.0342 4.44824C62.9268 4.44824 62.8193 4.59961 62.7119 4.90234C62.6045 5.20508 62.4971 5.61523 62.3896 6.13281C62.292 6.65039 62.1992 7.25098 62.1113 7.93457C62.0332 8.61816 61.96 9.3457 61.8916 10.1172C61.8232 10.8789 61.7695 11.6602 61.7305 12.4609C61.6914 13.2617 61.667 14.0332 61.6572 14.7754C61.8916 13.916 62.1113 13.0371 62.3164 12.1387C62.5215 11.2305 62.6973 10.3516 62.8438 9.50195C63 8.65234 63.1221 7.85156 63.21 7.09961C63.2979 6.33789 63.3418 5.67383 63.3418 5.10742ZM88.5225 19.1553C88.3174 19.5557 88.0781 19.9365 87.8047 20.2979C87.541 20.6494 87.2627 20.9766 86.9697 21.2793C86.6768 21.5723 86.3838 21.8457 86.0908 22.0996C85.7979 22.3438 85.5293 22.5586 85.2852 22.7441V24.4287C85.2852 25.708 85.1826 26.8457 84.9775 27.8418C84.7822 28.8379 84.4941 29.6826 84.1133 30.376C83.7422 31.0693 83.293 31.5967 82.7656 31.958C82.248 32.3193 81.667 32.5 81.0225 32.5C80.6709 32.5 80.3486 32.4268 80.0557 32.2803C79.7627 32.1436 79.5088 31.9531 79.2939 31.709C79.0889 31.4648 78.9277 31.1768 78.8105 30.8447C78.6934 30.5225 78.6348 30.1758 78.6348 29.8047C78.6348 29.0918 78.752 28.4326 78.9863 27.8271C79.2305 27.2314 79.5576 26.665 79.9678 26.1279C80.3779 25.6006 80.8516 25.0977 81.3887 24.6191C81.9258 24.1309 82.4971 23.6475 83.1025 23.1689C83.1123 22.6318 83.127 22.0996 83.1465 21.5723C83.1758 21.0449 83.2002 20.5469 83.2197 20.0781C83.249 19.6094 83.2734 19.1846 83.293 18.8037C83.3223 18.4229 83.3467 18.1104 83.3662 17.8662C83.0342 18.54 82.6582 19.2041 82.2383 19.8584C81.8281 20.5029 81.3887 21.1182 80.9199 21.7041C80.4512 22.29 79.958 22.832 79.4404 23.3301C78.9326 23.8184 78.4199 24.2432 77.9023 24.6045C77.3848 24.9658 76.8672 25.2441 76.3496 25.4395C75.8418 25.6445 75.3535 25.7471 74.8848 25.7471C74.3574 25.7471 73.8545 25.6396 73.376 25.4248C72.9072 25.2197 72.4922 24.8926 72.1309 24.4434C71.7793 23.9941 71.501 23.418 71.2959 22.7148C71.0811 22.0117 70.9736 21.1719 70.9736 20.1953C70.9736 19.1016 71.0957 17.9785 71.3398 16.8262C71.584 15.6738 71.9209 14.5312 72.3506 13.3984C72.7803 12.2656 73.293 11.1572 73.8887 10.0732C74.4844 8.98926 75.1338 7.96875 75.8369 7.01172C76.54 6.04492 77.2871 5.16113 78.0781 4.36035C78.8691 3.5498 79.6748 2.85156 80.4951 2.26562C81.3154 1.67969 82.1357 1.22559 82.9561 0.90332C83.7861 0.571289 84.5918 0.405273 85.373 0.405273C86.1934 0.405273 86.8477 0.615234 87.3359 1.03516C87.834 1.44531 88.083 2.03125 88.083 2.79297C88.083 3.20312 87.9951 3.60352 87.8193 3.99414C87.6533 4.375 87.4238 4.74609 87.1309 5.10742C86.8477 5.45898 86.5254 5.7959 86.1641 6.11816C85.8027 6.43066 85.4316 6.71875 85.0508 6.98242C84.6797 7.24609 84.3086 7.48047 83.9375 7.68555C83.5762 7.89062 83.2539 8.06152 82.9707 8.19824L82.5312 7.59766C82.9023 7.41211 83.3076 7.14844 83.7471 6.80664C84.1865 6.46484 84.5967 6.0791 84.9775 5.64941C85.3584 5.21973 85.6758 4.75586 85.9297 4.25781C86.1836 3.75977 86.3105 3.26172 86.3105 2.76367C86.3105 2.34375 86.1982 1.99707 85.9736 1.72363C85.7588 1.44043 85.4121 1.29883 84.9336 1.29883C84.1914 1.29883 83.3955 1.52832 82.5459 1.9873C81.7061 2.44629 80.8662 3.08594 80.0264 3.90625C79.1963 4.72656 78.4004 5.70801 77.6387 6.85059C76.877 7.9834 76.2031 9.22852 75.6172 10.5859C75.0312 11.9434 74.5625 13.3838 74.2109 14.9072C73.8594 16.4307 73.6836 17.9932 73.6836 19.5947C73.6836 20.2979 73.7324 20.9277 73.8301 21.4844C73.9375 22.041 74.084 22.5146 74.2695 22.9053C74.4648 23.2861 74.6992 23.584 74.9727 23.7988C75.2559 24.0039 75.5732 24.1064 75.9248 24.1064C76.3545 24.1064 76.8232 23.9746 77.3311 23.7109C77.8389 23.4473 78.3467 23.0908 78.8545 22.6416C79.3721 22.1924 79.8799 21.6748 80.3779 21.0889C80.876 20.4932 81.335 19.8682 81.7549 19.2139C82.1748 18.5596 82.541 17.8955 82.8535 17.2217C83.166 16.5479 83.3955 15.9082 83.542 15.3027C83.6006 14.5898 83.6592 13.9404 83.7178 13.3545C83.7764 12.7588 83.8301 12.2363 83.8789 11.7871C83.9375 11.3379 83.9912 10.9766 84.04 10.7031C84.0889 10.4199 84.1328 10.2344 84.1719 10.1465C84.25 10 84.3623 9.85352 84.5088 9.70703C84.6553 9.56055 84.8115 9.43359 84.9775 9.32617C85.1533 9.20898 85.3242 9.11621 85.4902 9.04785C85.6562 8.97949 85.7979 8.94531 85.915 8.94531C86.0713 8.94531 86.1738 9.00879 86.2227 9.13574C86.2812 9.2627 86.3105 9.39941 86.3105 9.5459C86.3105 9.97559 86.2373 10.5469 86.0908 11.2598C85.9443 11.9727 85.7588 12.8027 85.5342 13.75C85.4365 14.1602 85.3633 14.7021 85.3145 15.376C85.2754 16.04 85.2461 16.7529 85.2266 17.5146C85.2168 18.2666 85.2119 19.0283 85.2119 19.7998C85.2119 20.5615 85.207 21.2451 85.1973 21.8506C85.9199 21.3232 86.4961 20.7812 86.9258 20.2246C87.3652 19.6582 87.6973 19.1504 87.9219 18.7012L88.083 18.3936L88.6836 18.8477L88.5225 19.1553ZM83.0732 24.2529C82.6143 24.6143 82.1943 24.9951 81.8135 25.3955C81.4326 25.7959 81.1055 26.2256 80.832 26.6846C80.5684 27.1436 80.3584 27.6416 80.2021 28.1787C80.0557 28.7256 79.9824 29.3164 79.9824 29.9512C79.9824 30.5566 80.0801 31.0059 80.2754 31.2988C80.4707 31.6016 80.7197 31.7529 81.0225 31.7529C81.3252 31.7529 81.5986 31.6211 81.8428 31.3574C82.0967 31.1035 82.3115 30.6787 82.4873 30.083C82.6729 29.4971 82.8145 28.7256 82.9121 27.7686C83.0195 26.8115 83.0732 25.6396 83.0732 24.2529ZM87.9512 18.7012L88.0977 18.3936C88.2441 18.1006 88.376 17.7979 88.4932 17.4854C88.6201 17.1729 88.7275 16.8799 88.8154 16.6064C88.9033 16.3232 88.9717 16.0742 89.0205 15.8594C89.0693 15.6348 89.1035 15.4639 89.123 15.3467C88.8691 15.3174 88.625 15.2539 88.3906 15.1562C88.1562 15.0586 87.9512 14.9268 87.7754 14.7607C87.5996 14.5947 87.4629 14.3994 87.3652 14.1748C87.2578 13.9502 87.2041 13.6963 87.2041 13.4131C87.2041 13.1885 87.2432 12.9883 87.3213 12.8125C87.3994 12.6367 87.5068 12.4902 87.6436 12.373C87.7705 12.2559 87.917 12.168 88.083 12.1094C88.2393 12.041 88.4053 12.0068 88.5811 12.0068C88.8154 12.0068 89.0205 12.0557 89.1963 12.1533C89.3721 12.251 89.5186 12.3828 89.6357 12.5488C89.7529 12.7051 89.8408 12.8906 89.8994 13.1055C89.958 13.3105 89.9873 13.5254 89.9873 13.75C90.2607 13.75 90.5537 13.7109 90.8662 13.6328C91.1885 13.5547 91.5107 13.4717 91.833 13.3838C92.1553 13.2861 92.4727 13.1982 92.7852 13.1201C93.0977 13.042 93.3857 13.0029 93.6494 13.0029C93.874 13.0029 94.0547 13.0518 94.1914 13.1494C94.3281 13.2373 94.3965 13.3887 94.3965 13.6035C94.3965 13.7598 94.3477 14.0186 94.25 14.3799C94.1621 14.7412 94.0498 15.1611 93.9131 15.6396C93.7764 16.1182 93.625 16.6406 93.459 17.207C93.3027 17.7637 93.1562 18.3301 93.0195 18.9062C92.8828 19.4727 92.7656 20.0244 92.668 20.5615C92.5801 21.0986 92.5361 21.5771 92.5361 21.9971C92.5361 22.5244 92.5947 22.8809 92.7119 23.0664C92.8291 23.252 93.0391 23.3447 93.3418 23.3447C93.4688 23.3447 93.625 23.291 93.8105 23.1836C94.0059 23.0664 94.2402 22.8467 94.5137 22.5244C94.7871 22.1924 95.1094 21.7236 95.4805 21.1182C95.8613 20.5029 96.3008 19.6973 96.7988 18.7012L96.9453 18.3936L97.5459 18.8477L97.3994 19.1553C96.8135 20.3271 96.291 21.2891 95.832 22.041C95.373 22.793 94.9482 23.3887 94.5576 23.8281C94.1768 24.2676 93.8154 24.5752 93.4736 24.751C93.1318 24.917 92.79 25 92.4482 25C91.8721 25 91.4033 24.7803 91.042 24.3408C90.6807 23.9014 90.5 23.2227 90.5 22.3047C90.5 21.8066 90.5684 21.2891 90.7051 20.752C90.8418 20.2148 91.0127 19.6826 91.2178 19.1553C91.4229 18.6182 91.6523 18.0908 91.9062 17.5732C92.1602 17.0557 92.3994 16.5674 92.624 16.1084C92.8584 15.6396 93.0684 15.2051 93.2539 14.8047C93.4395 14.4043 93.5713 14.0527 93.6494 13.75L93.5615 13.6621C93.4053 13.6621 93.1953 13.7451 92.9316 13.9111C92.668 14.0771 92.3701 14.2676 92.0381 14.4824C91.7158 14.6875 91.3691 14.8828 90.998 15.0684C90.627 15.2539 90.251 15.3662 89.8701 15.4053C89.8506 15.542 89.8066 15.7422 89.7383 16.0059C89.6797 16.2695 89.5967 16.5625 89.4893 16.8848C89.3818 17.207 89.2598 17.5391 89.123 17.8809C88.9863 18.2227 88.8447 18.5449 88.6982 18.8477L88.5518 19.1553L87.9512 18.7012ZM88.6689 12.8271C88.5811 12.8271 88.5078 12.8564 88.4492 12.915C88.3906 12.9736 88.3613 13.042 88.3613 13.1201C88.3613 13.2373 88.3906 13.3398 88.4492 13.4277C88.5078 13.5059 88.5811 13.5742 88.6689 13.6328C88.7568 13.6816 88.8447 13.7207 88.9326 13.75C89.0303 13.7695 89.1133 13.7793 89.1816 13.7793C89.1816 13.5059 89.1377 13.2812 89.0498 13.1055C88.9619 12.9199 88.835 12.8271 88.6689 12.8271ZM105.822 21.3672C105.822 21.9238 105.871 22.3926 105.969 22.7734C106.066 23.1543 106.237 23.3447 106.481 23.3447C106.628 23.3447 106.784 23.2764 106.95 23.1396C107.126 22.9932 107.326 22.7588 107.551 22.4365C107.775 22.1143 108.029 21.6992 108.312 21.1914C108.605 20.6738 108.938 20.0439 109.309 19.3018L109.748 18.3936L110.349 18.8477L109.909 19.7559C109.499 20.5762 109.113 21.3135 108.752 21.9678C108.4 22.6123 108.063 23.1592 107.741 23.6084C107.419 24.0576 107.102 24.4043 106.789 24.6484C106.486 24.8828 106.184 25 105.881 25C105.559 25 105.285 24.9121 105.061 24.7363C104.846 24.5605 104.665 24.3213 104.519 24.0186C104.372 23.7061 104.26 23.3496 104.182 22.9492C104.104 22.5391 104.05 22.1045 104.021 21.6455C103.786 22.1143 103.527 22.5537 103.244 22.9639C102.961 23.3643 102.663 23.7158 102.351 24.0186C102.048 24.3213 101.73 24.5605 101.398 24.7363C101.066 24.9121 100.734 25 100.402 25C99.9141 25 99.4404 24.8975 98.9814 24.6924C98.5225 24.4873 98.1123 24.1748 97.751 23.7549C97.3994 23.335 97.1162 22.8076 96.9014 22.1729C96.6865 21.5283 96.5791 20.7715 96.5791 19.9023C96.5791 18.8867 96.7109 17.959 96.9746 17.1191C97.2383 16.2695 97.5947 15.542 98.0439 14.9365C98.4932 14.3213 99.0107 13.8477 99.5967 13.5156C100.183 13.1738 100.798 13.0029 101.442 13.0029C101.833 13.0029 102.194 13.0908 102.526 13.2666C102.858 13.4424 103.146 13.6572 103.391 13.9111C103.645 14.1553 103.854 14.4189 104.021 14.7021C104.187 14.9756 104.299 15.21 104.357 15.4053L104.533 13.9844C104.553 13.7988 104.641 13.6426 104.797 13.5156C104.963 13.3887 105.144 13.291 105.339 13.2227C105.534 13.1445 105.725 13.0908 105.91 13.0615C106.096 13.0225 106.228 13.0029 106.306 13.0029C106.423 13.0029 106.501 13.0225 106.54 13.0615C106.579 13.1006 106.599 13.1787 106.599 13.2959C106.599 13.4424 106.555 13.7402 106.467 14.1895C106.389 14.6289 106.301 15.1953 106.203 15.8887C106.115 16.5723 106.027 17.3779 105.939 18.3057C105.861 19.2334 105.822 20.2539 105.822 21.3672ZM104.211 17.5C104.211 17.0508 104.143 16.6113 104.006 16.1816C103.869 15.7422 103.684 15.3564 103.449 15.0244C103.215 14.6826 102.941 14.4092 102.629 14.2041C102.326 13.999 102.004 13.8965 101.662 13.8965C101.242 13.8965 100.847 14.0186 100.476 14.2627C100.114 14.4971 99.7969 14.834 99.5234 15.2734C99.2598 15.7031 99.0498 16.2256 98.8936 16.8408C98.7373 17.4463 98.6592 18.1152 98.6592 18.8477C98.6592 20.3125 98.8887 21.4307 99.3477 22.2021C99.8066 22.9639 100.417 23.3447 101.179 23.3447C101.511 23.3447 101.853 23.2129 102.204 22.9492C102.565 22.6758 102.893 22.29 103.186 21.792C103.488 21.2842 103.732 20.6689 103.918 19.9463C104.113 19.2236 104.211 18.4082 104.211 17.5ZM114.523 14.043C114.24 14.043 113.967 14.1455 113.703 14.3506C113.449 14.5459 113.205 14.8193 112.971 15.1709C112.736 15.5127 112.507 15.918 112.282 16.3867C112.067 16.8457 111.853 17.3389 111.638 17.8662V18.042C111.608 18.9014 111.579 19.8145 111.55 20.7812C111.53 21.748 111.521 22.8027 111.521 23.9453C111.521 24.1406 111.452 24.3066 111.315 24.4434C111.188 24.5703 111.037 24.6777 110.861 24.7656C110.686 24.8438 110.505 24.9023 110.319 24.9414C110.134 24.9805 109.982 25 109.865 25C109.719 25 109.582 24.9561 109.455 24.8682C109.328 24.7803 109.265 24.585 109.265 24.2822C109.265 24.1357 109.279 23.9551 109.309 23.7402C109.338 23.5156 109.377 23.2764 109.426 23.0225C109.465 22.7686 109.514 22.5098 109.572 22.2461C109.621 21.9727 109.67 21.7188 109.719 21.4844C109.719 20.6543 109.719 19.9072 109.719 19.2432C109.709 18.5791 109.704 17.9883 109.704 17.4707C109.704 16.9531 109.704 16.499 109.704 16.1084C109.694 15.7178 109.689 15.3809 109.689 15.0977C109.689 14.6289 109.699 14.2871 109.719 14.0723C109.729 13.8477 109.748 13.6914 109.777 13.6035C109.826 13.4668 109.914 13.3594 110.041 13.2812C110.178 13.2031 110.319 13.1445 110.466 13.1055C110.612 13.0566 110.759 13.0273 110.905 13.0176C111.052 13.0078 111.164 13.0029 111.242 13.0029C111.428 13.0029 111.55 13.0566 111.608 13.1641C111.667 13.2715 111.696 13.4375 111.696 13.6621C111.696 14.1699 111.696 14.6289 111.696 15.0391C111.696 15.4492 111.687 15.8594 111.667 16.2695C111.853 15.8301 112.067 15.415 112.312 15.0244C112.565 14.624 112.844 14.2773 113.146 13.9844C113.449 13.6816 113.767 13.4424 114.099 13.2666C114.44 13.0908 114.792 13.0029 115.153 13.0029C115.593 13.0029 115.954 13.0957 116.237 13.2812C116.53 13.457 116.76 13.7061 116.926 14.0283C117.102 14.3506 117.229 14.7314 117.307 15.1709C117.395 15.6006 117.453 16.0693 117.482 16.5771C117.756 16.0791 118.049 15.6152 118.361 15.1855C118.684 14.7461 119.021 14.3652 119.372 14.043C119.733 13.7207 120.109 13.4668 120.5 13.2812C120.9 13.0957 121.315 13.0029 121.745 13.0029C122.487 13.0029 123.029 13.2373 123.371 13.7061C123.713 14.165 123.884 14.79 123.884 15.5811C123.884 16.0791 123.845 16.6357 123.767 17.251C123.688 17.8662 123.605 18.4912 123.518 19.126C123.43 19.751 123.347 20.3662 123.269 20.9717C123.19 21.5771 123.151 22.1289 123.151 22.627C123.151 23.2324 123.303 23.5352 123.605 23.5352C123.762 23.5352 123.933 23.4424 124.118 23.2568C124.304 23.0615 124.514 22.7686 124.748 22.3779C124.992 21.9775 125.271 21.4746 125.583 20.8691C125.905 20.2637 126.276 19.541 126.696 18.7012L126.843 18.3936L127.443 18.8477L127.297 19.1553C126.721 20.3076 126.228 21.2598 125.817 22.0117C125.417 22.7637 125.056 23.3643 124.733 23.8135C124.411 24.2529 124.104 24.5605 123.811 24.7363C123.527 24.9121 123.21 25 122.858 25C122.653 25 122.453 24.9707 122.258 24.9121C122.062 24.8535 121.892 24.751 121.745 24.6045C121.599 24.458 121.481 24.2627 121.394 24.0186C121.306 23.7646 121.262 23.4424 121.262 23.0518C121.262 22.4658 121.301 21.8066 121.379 21.0742C121.457 20.3418 121.545 19.6094 121.643 18.877C121.74 18.1445 121.828 17.4561 121.906 16.8115C121.984 16.1572 122.023 15.625 122.023 15.2148C122.023 14.8535 121.945 14.5654 121.789 14.3506C121.633 14.126 121.398 14.0137 121.086 14.0137C120.773 14.0137 120.446 14.1357 120.104 14.3799C119.772 14.624 119.445 14.9414 119.123 15.332C118.811 15.7129 118.513 16.1426 118.229 16.6211C117.956 17.0996 117.717 17.5732 117.512 18.042C117.512 19.0674 117.502 19.9658 117.482 20.7373C117.463 21.499 117.434 22.1436 117.395 22.6709C117.365 23.1982 117.321 23.6182 117.263 23.9307C117.204 24.2334 117.141 24.4385 117.072 24.5459C117.023 24.6143 116.94 24.6777 116.823 24.7363C116.706 24.7949 116.574 24.8438 116.428 24.8828C116.291 24.9219 116.154 24.9512 116.018 24.9707C115.891 24.9902 115.793 25 115.725 25C115.568 25 115.432 24.9561 115.314 24.8682C115.207 24.7705 115.153 24.585 115.153 24.3115C115.153 24.1846 115.163 24.0137 115.183 23.7988C115.212 23.584 115.246 23.3447 115.285 23.0811C115.324 22.8174 115.368 22.5342 115.417 22.2314C115.466 21.9287 115.515 21.6211 115.563 21.3086C115.573 21.0156 115.583 20.6885 115.593 20.3271C115.603 19.9658 115.612 19.6094 115.622 19.2578C115.632 18.8965 115.637 18.5547 115.637 18.2324C115.646 17.9004 115.651 17.6172 115.651 17.3828C115.651 16.8848 115.637 16.4307 115.607 16.0205C115.578 15.6104 115.52 15.2588 115.432 14.9658C115.354 14.6729 115.241 14.4482 115.095 14.292C114.948 14.126 114.758 14.043 114.523 14.043Z" fill="url(#paint0_linear)"/>
</g>
<defs>
<filter id="filter0_d" x="0.777344" y="0.405273" width="130.666" height="40.0947" filterUnits="userSpaceOnUse" color-interpolation-filters="sRGB">
<feFlood flood-opacity="0" result="BackgroundImageFix"/>
<feColorMatrix in="SourceAlpha" type="matrix" values="0 0 0 0 0 0 0 0 0 0 0 0 0 0 0 0 0 0 127 0"/>
<feOffset dy="4"/>
<feGaussianBlur stdDeviation="2"/>
<feColorMatrix type="matrix" values="0 0 0 0 0 0 0 0 0 0 0 0 0 0 0 0 0 0 0.25 0"/>
<feBlend mode="normal" in2="BackgroundImageFix" result="effect1_dropShadow"/>
<feBlend mode="normal" in="SourceGraphic" in2="effect1_dropShadow" result="shape"/>
</filter>
<linearGradient id="paint0_linear" x1="13.7903" y1="13.299" x2="123.606" y2="13.299" gradientUnits="userSpaceOnUse">
<stop offset="0.151042" stop-color="#4DD4F7"/>
<stop offset="0.385417" stop-color="#9090FB"/>
<stop offset="0.598958" stop-color="#FF6B81"/>
<stop offset="0.807292" stop-color="#FBDF63"/>
<stop offset="1" stop-color="#D9F0F4"/>
</linearGradient>
</defs>
</svg>
