<svg width="24" height="24" viewBox="0 0 24 24" fill="none" xmlns="http://www.w3.org/2000/svg">
<path d="M19.6234 5.59531C17.9224 3.89436 15.753 2.83236 13.4062 2.52852V1.40624C13.4062 0.630841 12.7754 0 12 0C11.2246 0 10.5937 0.630841 10.5937 1.40624V2.52904C8.99117 2.73829 7.45771 3.3043 6.09646 4.19698C5.88 4.33892 5.81957 4.62954 5.96156 4.84601C6.10349 5.06248 6.39407 5.12285 6.61059 4.98092C7.96025 4.09583 9.49559 3.56235 11.0961 3.41619C11.1036 3.41567 11.1111 3.41511 11.1185 3.41422C11.4104 3.38825 11.7045 3.37499 12 3.37499C17.4278 3.37499 21.8437 7.79088 21.8437 13.2187C21.8437 18.6465 17.4278 23.0624 12 23.0624C6.57215 23.0624 2.15626 18.6465 2.15626 13.2187C2.15626 11.2952 2.71163 9.43149 3.76238 7.82898C3.90432 7.61247 3.84389 7.32189 3.62743 7.17996C3.41091 7.03807 3.12038 7.09844 2.9784 7.31491C1.82725 9.07056 1.21881 11.112 1.21881 13.2187C1.21881 16.0985 2.34024 18.8058 4.37653 20.8422C6.41282 22.8785 9.12022 23.9999 12 23.9999C14.8797 23.9999 17.5871 22.8785 19.6234 20.8422C21.6597 18.8059 22.7812 16.0985 22.7812 13.2187C22.7812 10.3389 21.6597 7.63164 19.6234 5.59531ZM11.5312 2.44808V1.40624C11.5312 1.14778 11.7415 0.937496 11.9999 0.937496C12.2584 0.937496 12.4687 1.14778 12.4687 1.40624V2.44818C12.313 2.44157 12.1567 2.43758 11.9999 2.43758C11.8433 2.43758 11.687 2.44138 11.5312 2.44808Z" fill="#ABABAB"/>
<path d="M12 22.125C16.9109 22.125 20.9062 18.1297 20.9062 13.2188C20.9062 8.30786 16.9109 4.31258 12 4.31258C7.08908 4.31258 3.09375 8.30791 3.09375 13.2188C3.09375 18.1297 7.08908 22.125 12 22.125ZM12 5.25003C16.394 5.25003 19.9687 8.82479 19.9687 13.2187C19.9687 17.6127 16.3939 21.1875 12 21.1875C7.60601 21.1875 4.03125 17.6127 4.03125 13.2187C4.03129 8.82479 7.60606 5.25003 12 5.25003Z" fill="#ABABAB"/>
<path d="M6.44801 13.6876H10.371L10.7804 14.3062C10.8151 14.3587 10.8601 14.4036 10.9126 14.4383L11.5312 14.8478V18.7708C11.5312 19.0297 11.7411 19.2395 12 19.2395C12.2588 19.2395 12.4687 19.0297 12.4687 18.7708V15.4682L15.8138 17.6822C15.8929 17.7345 15.9828 17.7601 16.0724 17.7601C16.1934 17.7601 16.3134 17.7133 16.404 17.6228C16.5615 17.4652 16.5864 17.2184 16.4634 17.0326L14.2494 13.6876H17.552C17.8108 13.6876 18.0207 13.4777 18.0207 13.2188C18.0207 12.9599 17.8108 12.7501 17.552 12.7501H13.629L13.2195 12.1314C13.1848 12.0789 13.1399 12.034 13.0874 11.9993L12.4688 11.5898V7.66681C12.4688 7.40792 12.2589 7.19806 12.0001 7.19806C11.7412 7.19806 11.5313 7.40792 11.5313 7.66681V10.9693L8.18622 8.75533C8.00036 8.63233 7.75361 8.65718 7.59602 8.81477C7.43843 8.97236 7.41358 9.21911 7.53658 9.40493L9.75058 12.7501H6.44806C6.18917 12.7501 5.97931 12.9599 5.97931 13.2188C5.97931 13.4777 6.18912 13.6876 6.44801 13.6876ZM12.4904 12.7284L14.4101 15.629L11.5096 13.7092L9.58979 10.8086L12.4904 12.7284Z" fill="#ABABAB"/>
<path d="M4.70817 6.39552C4.82067 6.39552 4.93355 6.35525 5.02336 6.2736L5.0236 6.27336C5.21513 6.09922 5.22914 5.80287 5.055 5.61129C4.88096 5.41976 4.58428 5.4057 4.39275 5.57989C4.20122 5.75403 4.18707 6.05052 4.36121 6.24205C4.45374 6.34386 4.58072 6.39552 4.70817 6.39552Z" fill="#ABABAB"/>
</svg>
