<svg width="26" height="24" viewBox="0 0 26 24" fill="none" xmlns="http://www.w3.org/2000/svg">
<path d="M23.6249 23.25H2.37488C1.34113 23.25 0.499878 22.4088 0.499878 21.375C0.499878 20.8263 0.738628 20.3075 1.15613 19.95C3.12613 18.285 4.24988 15.8625 4.24988 13.2975V9.5C4.24988 4.675 8.17488 0.75 12.9999 0.75C17.8249 0.75 21.7499 4.675 21.7499 9.5V13.2975C21.7499 15.8638 22.8736 18.285 24.8336 19.9412C25.2611 20.3075 25.4999 20.8263 25.4999 21.375C25.4999 22.4088 24.6599 23.25 23.6249 23.25ZM12.9999 2C8.86363 2 5.49988 5.36375 5.49988 9.5V13.2975C5.49988 16.2325 4.21488 19.0013 1.97363 20.8963C1.82988 21.0188 1.74988 21.1925 1.74988 21.375C1.74988 21.72 2.02988 22 2.37488 22H23.6249C23.9699 22 24.2499 21.72 24.2499 21.375C24.2499 21.1925 24.1699 21.0188 24.0311 20.9C21.7861 19.0013 20.4999 16.2312 20.4999 13.2975V9.5C20.4999 5.36375 17.1361 2 12.9999 2Z" fill="#ABABAB"/>
</svg>
